<?xml version="1.0" encoding="UTF-8"?>
<svg version="1.1" xmlns="http://www.w3.org/2000/svg" width="1686" height="447">
<path d="M0 0 C14.64799146 12.48126237 22.52479021 29.10718778 25 48 C25.51516625 55.79993898 25.05062024 62.49195218 23 70 C66.03523443 65.24387783 105.01234848 52.59527203 139 25 C139.94230469 24.26136719 140.88460938 23.52273437 141.85546875 22.76171875 C151.74885395 14.90561738 160.58126181 6.25456985 168 -4 C176.70878397 3.62018598 178.21248166 18.98457364 179.28515625 29.90234375 C179.953875 49.23703813 172.58248064 67.53705697 159.55859375 81.64453125 C153.63446677 87.68276662 153.63446677 87.68276662 151 89 C156.55038607 89.27534552 160.88114659 88.38947242 166.125 86.625 C166.81464844 86.40328125 167.50429688 86.1815625 168.21484375 85.953125 C171.8671785 84.76594162 175.45469677 83.4760601 179 82 C180.09970111 100.38944632 173.60149331 117.52484747 161.49609375 131.40625 C152.55954535 140.69242862 143.69111163 146.05376047 132 151 C130.65986503 151.65288627 129.32258472 152.31225595 128 153 C133.68839118 153.9802248 139.17294333 154.11948801 144.9375 154.0625 C145.81212891 154.05798828 146.68675781 154.05347656 147.58789062 154.04882812 C149.72529047 154.03714834 151.86265463 154.01921689 154 154 C151.27819384 169.16812366 140.12026745 182.30945631 127.96484375 191.2265625 C116.45238271 198.69637319 104.58290381 202.48828147 91 204 C114.11541788 224.96353213 147.76821124 232.24428861 178 232.0625 C179.45702971 232.05747576 180.9140611 232.05291449 182.37109375 232.04882812 C185.9140977 232.03789388 189.45703797 232.02068 193 232 C189.64529936 235.48812364 186.15033278 237.9101119 181.9375 240.25 C181.23923096 240.63841064 180.54096191 241.02682129 179.8215332 241.42700195 C159.59410067 252.41692032 137.6619075 259.29707394 115 263 C114.27554687 263.11859375 113.55109375 263.2371875 112.8046875 263.359375 C62.48596308 271.15784889 8.06232847 259.15010155 -33.30224609 229.3515625 C-38.85506963 225.23497617 -43.98172094 220.75125136 -49 216 C-50.36965259 214.80633629 -51.74445266 213.61854628 -53.125 212.4375 C-79.27080113 189.60595535 -97.04344917 158.63565579 -108 126 C-108.23847656 125.29262695 -108.47695312 124.58525391 -108.72265625 123.85644531 C-115.08338771 104.61977602 -118.22231225 84.60968993 -118.0625 64.375 C-118.05798828 63.27542969 -118.05347656 62.17585938 -118.04882812 61.04296875 C-118.03717139 58.36191997 -118.02081017 55.68099068 -118 53 C-118.61697754 52.70448242 -119.23395508 52.40896484 -119.86962891 52.10449219 C-131.56551916 46.04075078 -144.95583509 30.98061001 -152 20 C-152 19.01 -152 18.02 -152 17 C-151.21302734 17.23783203 -151.21302734 17.23783203 -150.41015625 17.48046875 C-148.71560281 17.99080847 -147.02017956 18.49826316 -145.32421875 19.00390625 C-142.82391626 19.75311557 -140.32746418 20.5122586 -137.83203125 21.27734375 C-136.34642353 21.72679184 -134.86074619 22.17600987 -133.375 22.625 C-132.67125244 22.84309326 -131.96750488 23.06118652 -131.24243164 23.28588867 C-126.4933854 24.71054718 -121.93476802 25.50097851 -117 26 C-117.78503906 25.31035156 -118.57007813 24.62070313 -119.37890625 23.91015625 C-128.31579863 15.96577726 -135.03523126 8.27719753 -140.5 -2.4375 C-140.86319336 -3.14865967 -141.22638672 -3.85981934 -141.60058594 -4.5925293 C-142.46769584 -6.36362472 -143.242298 -8.17941046 -144 -10 C-143.67 -10.66 -143.34 -11.32 -143 -12 C-142.4423999 -11.72325439 -141.8847998 -11.44650879 -141.31030273 -11.16137695 C-130.06392057 -5.61038915 -119.0576505 -0.50444029 -107 3 C-106.11828125 3.32484375 -105.2365625 3.6496875 -104.328125 3.984375 C-102.04264072 4.73597721 -100.39649177 5.20796003 -98 5 C-96.01938457 3.59470619 -94.62991379 1.98476139 -93.05078125 0.140625 C-68.48178308 -25.50472928 -25.44889596 -20.15393711 0 0 Z " fill="#23BBA0" transform="translate(230,98)"/>
<path d="M0 0 C8.47575869 7.30272289 15.93907638 14.93851433 21.87890625 24.48046875 C22.4615625 25.36863281 23.04421875 26.25679687 23.64453125 27.171875 C27.19256265 32.84101214 29.87794023 38.58131827 32.12890625 44.85546875 C32.36295166 45.50201416 32.59699707 46.14855957 32.83813477 46.81469727 C36.87352864 58.66929933 38.41362597 70.30062353 38.31640625 82.79296875 C38.3136972 83.46890076 38.31098816 84.14483276 38.30819702 84.84124756 C38.24324488 95.55250345 37.32895952 105.32323955 33.87890625 115.48046875 C33.52828125 116.58261719 33.17765625 117.68476563 32.81640625 118.8203125 C26.3317993 137.3960095 15.08037921 153.05654888 -0.12109375 165.48046875 C1.53076967 169.39774487 4.18317757 172.37131114 6.94140625 175.54296875 C7.94214876 176.70899857 8.94213823 177.87567507 9.94140625 179.04296875 C10.43898438 179.62304688 10.9365625 180.203125 11.44921875 180.80078125 C14.23219485 184.07039798 16.92770258 187.41135089 19.63671875 190.7421875 C22.00517934 193.63468031 24.40949555 196.49491912 26.81640625 199.35546875 C32.02646564 205.58791029 36.97222689 212.0078279 41.87890625 218.48046875 C41.54890625 219.14046875 41.21890625 219.80046875 40.87890625 220.48046875 C33.43799093 220.66636386 25.99758119 220.80823988 18.55480862 220.89496613 C15.09811965 220.9366064 11.64302638 220.99301339 8.18725586 221.08398438 C4.20836946 221.18806266 0.23011418 221.2264511 -3.75 221.26171875 C-5.5988253 221.32365417 -5.5988253 221.32365417 -7.48500061 221.38684082 C-15.88902632 221.39121596 -15.88902632 221.39121596 -19.3793335 218.81117249 C-21.17538287 216.79040264 -22.66358904 214.75418627 -24.12109375 212.48046875 C-24.78125488 211.64185303 -25.44141602 210.8032373 -26.12158203 209.93920898 C-26.63962402 209.22966064 -27.15766602 208.5201123 -27.69140625 207.7890625 C-28.27792969 206.98919922 -28.86445312 206.18933594 -29.46875 205.36523438 C-30.05527344 204.55763672 -30.64179687 203.75003906 -31.24609375 202.91796875 C-31.84035156 202.10650391 -32.43460938 201.29503906 -33.046875 200.45898438 C-33.63082031 199.66041016 -34.21476563 198.86183594 -34.81640625 198.0390625 C-35.67915161 196.88664062 -35.67915161 196.88664062 -36.55932617 195.7109375 C-38.12109375 193.48046875 -38.12109375 193.48046875 -39.20825195 191.328125 C-40.34590799 189.18766613 -41.15587237 187.91344267 -43.12109375 186.48046875 C-47.486881 185.7814834 -51.67430344 186.20118029 -56.05859375 186.60546875 C-58.51141652 186.76260347 -60.96454754 186.91500334 -63.41796875 187.0625 C-65.17077148 187.17972412 -65.17077148 187.17972412 -66.95898438 187.29931641 C-91.55281173 188.70825865 -117.00983547 178.70416519 -135.52734375 162.828125 C-156.1165479 144.19241462 -169.5117925 119.80196016 -171.29394531 91.76074219 C-172.58643792 60.0566588 -164.15372765 32.51904732 -142.5078125 8.92578125 C-106.14148791 -29.03711369 -40.95370183 -32.37292621 0 0 Z M-105.46484375 39.453125 C-112.00528658 47.45899724 -115.57446988 55.49934615 -118.12109375 65.48046875 C-118.3847876 66.38357788 -118.3847876 66.38357788 -118.65380859 67.30493164 C-119.68204087 72.09206736 -119.34927899 77.10487025 -119.37109375 81.98046875 C-119.39171875 83.10195312 -119.41234375 84.2234375 -119.43359375 85.37890625 C-119.50775534 101.43489129 -114.76042992 115.51584275 -103.54296875 127.22265625 C-89.94517008 139.89931372 -75.6521659 141.26549054 -57.77587891 140.65966797 C-48.32837831 140.02195733 -40.52719714 136.22736364 -33.12109375 130.48046875 C-32.08984375 129.73796875 -31.05859375 128.99546875 -29.99609375 128.23046875 C-18.10675257 116.85805545 -13.62448804 102.21786964 -12.9921875 86.21875 C-12.7298068 70.31847978 -15.37257917 55.37450404 -25.12109375 42.48046875 C-25.63542969 41.73796875 -26.14976562 40.99546875 -26.6796875 40.23046875 C-27.39318359 39.36421875 -27.39318359 39.36421875 -28.12109375 38.48046875 C-28.78109375 38.48046875 -29.44109375 38.48046875 -30.12109375 38.48046875 C-30.12109375 37.82046875 -30.12109375 37.16046875 -30.12109375 36.48046875 C-43.08208026 25.06580384 -58.08752447 23.7177314 -74.56884766 24.30126953 C-86.20906993 25.118557 -97.55350466 30.92604489 -105.46484375 39.453125 Z " fill="#26BCA1" transform="translate(672.12109375,138.51953125)"/>
<path d="M0 0 C6.94166078 -0.0758805 13.88321518 -0.12852796 20.82519531 -0.16479492 C23.1881917 -0.179909 25.55115991 -0.20040076 27.9140625 -0.22631836 C31.30475809 -0.26258629 34.69508379 -0.27969999 38.0859375 -0.29296875 C39.14743011 -0.30845261 40.20892273 -0.32393646 41.30258179 -0.33988953 C42.77388046 -0.34022942 42.77388046 -0.34022942 44.27490234 -0.34057617 C45.57396011 -0.35056892 45.57396011 -0.35056892 46.89926147 -0.36076355 C47.93912704 -0.18218559 47.93912704 -0.18218559 49 0 C51.22865099 3.34297649 51.63400509 5.5496056 52.33203125 9.484375 C52.44861588 10.12706329 52.5652005 10.76975159 52.68531799 11.43191528 C52.93578753 12.81459003 53.18330122 14.19780284 53.42816162 15.58148193 C54.08065263 19.26297361 54.75693231 22.94007344 55.43359375 26.6171875 C55.56811951 27.34998932 55.70264526 28.08279114 55.84124756 28.83779907 C56.89699488 34.54593085 58.09135883 40.21367346 59.375 45.875 C62.3315237 58.99720702 64.75199729 72.22651697 67.23388672 85.44482422 C67.4016008 86.33588867 67.56931488 87.22695312 67.74211121 88.14501953 C68.05664458 89.81776119 68.36983041 91.49075709 68.68135071 93.1640625 C69.58914606 102.21140812 69.58914606 102.21140812 73 110 C73.13462646 109.38108887 73.26925293 108.76217773 73.40795898 108.12451172 C81.30468723 71.94182744 90.01816294 35.92734824 99 0 C116.49 0 133.98 0 152 0 C154.57802351 8.37857642 156.94081534 16.52206221 158.83203125 25.0390625 C159.34910484 27.32209134 159.86687054 29.60496351 160.38525391 31.88769531 C160.64969299 33.05691528 160.91413208 34.22613525 161.18658447 35.43078613 C162.53421799 41.34411344 163.92875198 47.24624609 165.32421875 53.1484375 C165.60081329 54.31949036 165.87740784 55.49054321 166.16238403 56.69708252 C166.72194654 59.06505848 167.28183204 61.43295814 167.84204102 63.80078125 C168.6985268 67.42161634 169.55341825 71.04282553 170.40820312 74.6640625 C170.96344744 77.01304311 171.51878258 79.36200225 172.07421875 81.7109375 C172.3242717 82.77049652 172.57432465 83.83005554 172.83195496 84.92172241 C174.30392114 91.13744356 175.8371812 97.33236941 177.4466095 103.5140686 C178 106 178 106 178 109 C178.66 108.67 179.32 108.34 180 108 C180.57659476 106.07472352 180.57659476 106.07472352 180.89453125 103.71484375 C181.0426123 102.80484619 181.19069336 101.89484863 181.34326172 100.95727539 C181.57553467 99.46248657 181.57553467 99.46248657 181.8125 97.9375 C183.15417461 89.76750131 184.63771905 81.65762208 186.375 73.5625 C188.23957411 64.82962056 189.94298318 56.07452362 191.56100464 47.29296875 C193.66959627 35.85116294 195.88723735 24.4417293 198.3125 13.0625 C198.56700928 11.85948242 198.82151855 10.65646484 199.08374023 9.41699219 C199.32036377 8.32161133 199.5569873 7.22623047 199.80078125 6.09765625 C200.00872314 5.13351807 200.21666504 4.16937988 200.4309082 3.17602539 C201 1 201 1 202 0 C203.44289787 -0.09295815 204.89029785 -0.11746513 206.33618164 -0.11352539 C207.2570607 -0.11344986 208.17793976 -0.11337433 209.12672424 -0.11329651 C210.12775681 -0.10813522 211.12878937 -0.10297394 212.16015625 -0.09765625 C213.68956093 -0.09553383 213.68956093 -0.09553383 215.24986267 -0.09336853 C218.52077107 -0.08775097 221.79161213 -0.0751955 225.0625 -0.0625 C227.27408756 -0.05748726 229.48567618 -0.05292396 231.69726562 -0.04882812 C237.13153357 -0.03777584 242.56576197 -0.02102063 248 0 C249.17532799 3.52598397 248.75393247 4.71607052 247.77734375 8.2421875 C247.48907715 9.29776855 247.20081055 10.35334961 246.90380859 11.44091797 C246.42548584 13.14078857 246.42548584 13.14078857 245.9375 14.875 C245.61604004 16.04305176 245.29458008 17.21110352 244.96337891 18.41455078 C242.74533312 26.44171204 240.44765024 34.44577191 238.13061523 42.44482422 C236.4570595 48.26739191 234.93948885 54.11552142 233.5 60 C231.90871459 66.50367854 230.18998718 72.94821695 228.3125 79.375 C225.34895988 89.53344502 222.67344076 99.7624154 220 110 C216.67505443 122.72746824 213.25448308 135.41269248 209.56103516 148.0390625 C208.50872463 151.71711217 207.56424001 155.42449687 206.640625 159.13671875 C206 161 206 161 204 163 C201.76086426 163.24723816 201.76086426 163.24723816 198.93945312 163.24291992 C197.88495972 163.24599655 196.83046631 163.24907318 195.74401855 163.25224304 C194.60130493 163.24505753 193.45859131 163.23787201 192.28125 163.23046875 C191.11243286 163.23001053 189.94361572 163.22955231 188.73937988 163.2290802 C186.26455675 163.22605492 183.78973557 163.21816046 181.31494141 163.20581055 C177.51588228 163.18757623 173.71706702 163.18530066 169.91796875 163.18554688 C167.51822705 163.18063101 165.11848701 163.1748024 162.71875 163.16796875 C161.57603638 163.16685593 160.43332275 163.1657431 159.25598145 163.16459656 C158.20148804 163.15821671 157.14699463 163.15183685 156.06054688 163.14526367 C155.1294812 163.14145187 154.19841553 163.13764008 153.23913574 163.13371277 C151 163 151 163 149 162 C148.3263092 160.11578369 148.3263092 160.11578369 147.72290039 157.61035156 C147.49251572 156.67149109 147.26213104 155.73263062 147.02476501 154.76531982 C146.65865868 153.21859589 146.65865868 153.21859589 146.28515625 151.640625 C146.02460953 150.56870911 145.76406281 149.49679321 145.49562073 148.39239502 C144.65599923 144.93008409 143.82786857 141.46513788 143 138 C142.45892513 135.76088524 141.91710335 133.52195082 141.37451172 131.28320312 C139.71884694 124.44118973 138.07713408 117.59587002 136.4375 110.75 C132.6995594 95.14740133 128.92875232 79.55578038 125 64 C122.28186599 70.72082364 120.51048937 77.51985387 118.8046875 84.55859375 C118.18642936 87.0702869 117.56759309 89.5818378 116.94824219 92.09326172 C116.78922739 92.74058919 116.63021259 93.38791666 116.46637917 94.05486012 C114.70432435 101.22423833 112.88908361 108.37999002 111.0703125 115.53515625 C110.74552917 116.81417816 110.42074585 118.09320007 110.08612061 119.41098022 C109.4304249 121.99240354 108.77443997 124.57375342 108.11816406 127.1550293 C107.27319359 130.47853112 106.42979602 133.80243018 105.58671761 137.12641239 C104.76974231 140.3462462 103.95118296 143.56567676 103.1328125 146.78515625 C102.83182648 147.97238785 102.53084045 149.15961945 102.22073364 150.38282776 C101.94309174 151.47345016 101.66544983 152.56407257 101.37939453 153.68774414 C101.13625519 154.64475723 100.89311584 155.60177032 100.64260864 156.58778381 C100.15728696 158.4095782 99.59619392 160.21141824 99 162 C96.50525029 163.24737486 94.82222396 163.12696326 92.03125 163.12939453 C90.99677734 163.13254669 89.96230469 163.13569885 88.89648438 163.13894653 C87.77564453 163.1369223 86.65480469 163.13489807 85.5 163.1328125 C83.78006836 163.13424759 83.78006836 163.13424759 82.02539062 163.13571167 C79.59765569 163.13639311 77.16991895 163.13454135 74.7421875 163.13037109 C71.01558357 163.12502237 67.28910016 163.13031735 63.5625 163.13671875 C61.20833307 163.13605796 58.85416621 163.13477679 56.5 163.1328125 C55.37916016 163.13483673 54.25832031 163.13686096 53.10351562 163.13894653 C51.55180664 163.13421829 51.55180664 163.13421829 49.96875 163.12939453 C49.05544922 163.12859894 48.14214844 163.12780334 47.20117188 163.12698364 C45 163 45 163 43 162 C42.22558594 160.06420898 42.22558594 160.06420898 41.484375 157.49609375 C41.20585693 156.54001221 40.92733887 155.58393066 40.64038086 154.59887695 C40.34655518 153.55562256 40.05272949 152.51236816 39.75 151.4375 C39.4413501 150.36137451 39.1327002 149.28524902 38.81469727 148.17651367 C36.46379923 139.88352028 34.30573612 131.5482008 32.30566406 123.16381836 C30.31941621 114.93454706 27.97108382 106.8187913 25.63012695 98.68530273 C22.8979959 89.18309587 20.26276606 79.65374637 17.625 70.125 C17.34408508 69.11128326 17.06317017 68.09756653 16.77374268 67.0531311 C12.85778252 52.90846322 9.03989966 38.74465648 5.44775391 24.51416016 C3.973546 18.68331292 2.42364703 12.9248412 0.53759766 7.2121582 C-0.06288722 4.74122566 -0.03605491 2.53430679 0 0 Z " fill="#27BDA1" transform="translate(721,161)"/>
<path d="M0 0 C1.8125 1.625 1.8125 1.625 3 3 C3 3.66 3 4.32 3 5 C3.66 5 4.32 5 5 5 C16.60697536 18.29136493 23.46157438 36.46605274 24 54 C24.03996094 55.24394531 24.07992188 56.48789063 24.12109375 57.76953125 C24.23447411 64.56568347 23.90684217 69.32605241 22 76 C-32.45 76.495 -32.45 76.495 -88 77 C-85.91310645 87.43446777 -84.21518414 94.70401073 -75.234375 100.78125 C-66.7758398 105.39499647 -58.1289774 106.22344139 -48.875 103.875 C-41.85725844 101.56121896 -37.5001837 97.44770681 -34 91 C-31.51644959 89.75822479 -29.86892378 89.87963319 -27.09130859 89.88647461 C-26.07040131 89.88655014 -25.04949402 89.88662567 -23.99765015 89.88670349 C-22.33978989 89.89444542 -22.33978989 89.89444542 -20.6484375 89.90234375 C-19.5192691 89.9037587 -18.39010071 89.90517365 -17.22671509 89.90663147 C-13.60945012 89.91224256 -9.99224636 89.92479697 -6.375 89.9375 C-3.92708423 89.94251357 -1.47916748 89.94707672 0.96875 89.95117188 C6.97918766 89.9622156 12.98958946 89.97896456 19 90 C20.32744316 93.98232949 19.02247483 96.35917046 17.5 100.0625 C17.08778198 101.07123169 17.08778198 101.07123169 16.66723633 102.1003418 C14.16392353 107.99501214 11.04810862 113.02541703 7 118 C6.34386719 118.83015625 5.68773437 119.6603125 5.01171875 120.515625 C-6.93706029 134.75804536 -24.94890039 144.25838718 -43.375 146.8125 C-44.91467051 146.91278505 -46.45741188 146.96737729 -48 147 C-48.63131836 147.01901367 -49.26263672 147.03802734 -49.91308594 147.05761719 C-76.03131434 147.77366749 -98.20877226 141.68383082 -117.546875 123.62109375 C-132.74202075 107.71858777 -140.47387953 84.5830236 -139.9921875 62.70703125 C-139.76869795 59.11317515 -139.43611232 55.57369815 -139 52 C-138.94086426 51.30148926 -138.88172852 50.60297852 -138.82080078 49.88330078 C-138.32674257 44.39416005 -137.16070694 39.45759579 -135.375 34.25 C-135.10776123 33.46995605 -134.84052246 32.68991211 -134.56518555 31.88623047 C-130.02063674 19.05719702 -123.59365748 9.46497951 -114 0 C-113.39285156 -0.60585937 -112.78570313 -1.21171875 -112.16015625 -1.8359375 C-102.6982776 -10.58065664 -91.20272398 -14.77616374 -79 -18 C-78.11183594 -18.2475 -77.22367188 -18.495 -76.30859375 -18.75 C-49.51006903 -24.94420154 -20.94560311 -17.20531684 0 0 Z M-81.53125 30.078125 C-85.80158639 35.6659056 -86.98823251 39.91762756 -88 47 C-58.3 47.495 -58.3 47.495 -28 48 C-26.2213323 44.44266461 -27.86599748 40.65607369 -29 37 C-32.49626905 30.27640568 -39.04371314 23.77142257 -46.41015625 21.4375 C-59.26074984 19.26666066 -72.32082342 19.91189944 -81.53125 30.078125 Z " fill="#27BCA1" transform="translate(1437,179)"/>
<path d="M0 0 C1.46657043 -0.00472824 1.46657043 -0.00472824 2.96276855 -0.009552 C4.0262854 -0.00752777 5.08980225 -0.00550354 6.18554688 -0.00341797 C7.81127625 -0.00485306 7.81127625 -0.00485306 9.46984863 -0.00631714 C11.76652077 -0.00699912 14.06319482 -0.00514358 16.35986328 -0.00097656 C19.88904115 0.00437141 23.41809174 -0.00092097 26.94726562 -0.00732422 C29.17252632 -0.00666344 31.39778694 -0.00538228 33.62304688 -0.00341797 C34.68656372 -0.0054422 35.75008057 -0.00746643 36.8458252 -0.009552 C37.82353882 -0.00639984 38.80125244 -0.00324768 39.80859375 0 C40.67383667 0.00079559 41.53907959 0.00159119 42.43054199 0.00241089 C44.40429688 0.12939453 44.40429688 0.12939453 45.40429688 1.12939453 C45.4929168 3.94102833 45.51952043 6.72797709 45.50195312 9.53955078 C45.50053818 10.38158554 45.49912323 11.2236203 45.49766541 12.09117126 C45.49204951 14.79144788 45.47949436 17.49164281 45.46679688 20.19189453 C45.46178392 22.01806521 45.45722066 23.84423719 45.453125 25.67041016 C45.44207492 30.15676995 45.42479967 34.64306837 45.40429688 39.12939453 C46.33814209 39.12415771 47.2719873 39.1189209 48.23413086 39.11352539 C51.68742484 39.09651833 55.14067455 39.08396151 58.59399414 39.07446289 C60.09074606 39.06942332 61.58749303 39.06259166 63.08422852 39.05395508 C65.23129495 39.04187294 67.3782965 39.03616262 69.52539062 39.03173828 C71.4656311 39.02388306 71.4656311 39.02388306 73.44506836 39.01586914 C76.40429688 39.12939453 76.40429688 39.12939453 77.40429688 40.12939453 C77.4930096 43.15917257 77.51949038 46.16606475 77.50195312 49.19580078 C77.50053818 50.10442368 77.49912323 51.01304657 77.49766541 51.94920349 C77.49204881 54.86346674 77.47949352 57.77765434 77.46679688 60.69189453 C77.46178401 62.66259655 77.45722074 64.63329977 77.453125 66.60400391 C77.44207399 71.44583012 77.42479825 76.28759948 77.40429688 81.12939453 C74.53411246 82.56448674 72.06885965 82.24097959 68.86523438 82.22705078 C66.91230469 82.2222168 66.91230469 82.2222168 64.91992188 82.21728516 C63.53971289 82.20892919 62.15950455 82.20046424 60.77929688 82.19189453 C59.39127762 82.18687954 58.00325665 82.18231663 56.61523438 82.17822266 C53.21154555 82.16640429 49.80794249 82.14992887 46.40429688 82.12939453 C46.33473732 91.03948418 46.28145548 99.94948012 46.24886036 108.85978222 C46.23321505 112.99735809 46.2119977 117.13474796 46.17797852 121.2722168 C46.14534428 125.26631304 46.12743532 129.26023055 46.11966515 133.25444984 C46.11412891 134.77707037 46.10331788 136.29968128 46.0871067 137.82222557 C46.06527774 139.95762523 46.06233213 142.09228963 46.0637207 144.2277832 C46.05705887 145.44245773 46.05039703 146.65713226 46.04353333 147.90861511 C46.43871395 151.43665892 47.28359202 153.31122453 49.40429688 156.12939453 C51.96175711 157.40812465 53.88355305 157.30534921 56.74414062 157.37548828 C57.80697266 157.40835938 58.86980469 157.44123047 59.96484375 157.47509766 C62.21213957 157.53618667 64.4595415 157.59349205 66.70703125 157.64697266 C67.77115234 157.68113281 68.83527344 157.71529297 69.93164062 157.75048828 C71.39718384 157.78807251 71.39718384 157.78807251 72.89233398 157.82641602 C75.40429688 158.12939453 75.40429688 158.12939453 78.40429688 160.12939453 C78.69575677 163.15675505 78.80006859 165.97626209 78.76757812 169.00439453 C78.76832588 170.32479736 78.76832588 170.32479736 78.76908875 171.671875 C78.76674619 173.53469091 78.757007 175.39750985 78.74047852 177.26025391 C78.71689123 180.1179625 78.71991535 182.9747384 78.7265625 185.83251953 C78.72098578 187.63981678 78.71387594 189.44711009 78.70507812 191.25439453 C78.70598953 192.11274902 78.70690094 192.97110352 78.70783997 193.85546875 C78.63531496 199.89837645 78.63531496 199.89837645 76.40429688 202.12939453 C73.49365234 202.40405273 73.49365234 202.40405273 69.77148438 202.43017578 C69.10670074 202.43568451 68.44191711 202.44119324 67.75698853 202.4468689 C65.59754421 202.45859185 63.43874211 202.45224322 61.27929688 202.44189453 C60.54976807 202.44073639 59.82023926 202.43957825 59.06860352 202.43838501 C48.5828065 202.40521494 38.54679612 202.04079285 28.40429688 199.12939453 C27.24994141 198.82195312 27.24994141 198.82195312 26.07226562 198.50830078 C15.71253054 195.21852297 7.05727656 188.32833421 1.40429688 179.12939453 C-5.20892792 165.70049928 -5.89956454 151.88925979 -6.00976562 137.20751953 C-6.02851987 135.61040291 -6.04809629 134.01329576 -6.06845093 132.41619873 C-6.1193293 128.25384149 -6.15918912 124.09145228 -6.19659424 119.92895508 C-6.23691497 115.66496157 -6.28787781 111.40109592 -6.33789062 107.13720703 C-6.4341239 98.80135755 -6.51869331 90.46544369 -6.59570312 82.12939453 C-8.27599609 82.18160156 -8.27599609 82.18160156 -9.99023438 82.23486328 C-11.46287563 82.26300292 -12.9355331 82.2903029 -14.40820312 82.31689453 C-15.14619141 82.34203125 -15.88417969 82.36716797 -16.64453125 82.39306641 C-22.06913608 82.46670358 -22.06913608 82.46670358 -24.58514404 80.85499573 C-26.41822677 77.72487716 -25.97760323 74.11968783 -25.92382812 70.59423828 C-25.92195496 69.75977676 -25.92008179 68.92531525 -25.91815186 68.06556702 C-25.91143284 66.30286662 -25.89752127 64.54018109 -25.87695312 62.77758789 C-25.84578219 60.07375292 -25.83598044 57.3705008 -25.83007812 54.66650391 C-25.82090867 52.95490823 -25.81053308 51.2433185 -25.79882812 49.53173828 C-25.79457825 48.7202684 -25.79032837 47.90879852 -25.78594971 47.07273865 C-25.71291095 41.36381017 -25.71291095 41.36381017 -24.59570312 39.12939453 C-18.32570313 39.12939453 -12.05570313 39.12939453 -5.59570312 39.12939453 C-5.60730469 36.39787109 -5.61890625 33.66634766 -5.63085938 30.85205078 C-5.63864955 28.21769324 -5.64472653 25.58333696 -5.65063477 22.94897461 C-5.65567544 21.11270578 -5.66250789 19.27644099 -5.67114258 17.44018555 C-5.68321985 14.80663052 -5.68893394 12.17312837 -5.69335938 9.53955078 C-5.69852066 8.71350845 -5.70368195 7.88746613 -5.70899963 7.03639221 C-5.70919517 5.06703086 -5.65774464 3.0977784 -5.59570312 1.12939453 C-3.98161063 -0.48469797 -2.23093904 0.00205135 0 0 Z " fill="#29BDA2" transform="translate(1203.595703125,121.87060546875)"/>
<path d="M0 0 C16.5 0 33 0 50 0 C50.33 12.54 50.66 25.08 51 38 C61.23 38.33 71.46 38.66 82 39 C83.62554259 42.25108518 83.18441026 45.82895906 83.203125 49.40234375 C83.20882507 50.23584854 83.21452515 51.06935333 83.22039795 51.92811584 C83.22985044 53.69254282 83.23638292 55.45698746 83.24023438 57.22143555 C83.24994904 59.92332635 83.28097304 62.6244594 83.3125 65.32617188 C83.31902913 67.03905797 83.32427996 68.75194952 83.328125 70.46484375 C83.3404718 71.2742894 83.3528186 72.08373505 83.36553955 72.91770935 C83.34348228 78.46019079 83.34348228 78.46019079 81.90618896 80.7190094 C79.01601517 82.66125412 76.59273819 82.33661694 73.14453125 82.29296875 C72.48289474 82.28872391 71.82125824 82.28447906 71.13957214 82.28010559 C69.0301309 82.26333693 66.92165154 82.22569099 64.8125 82.1875 C63.38087319 82.17245068 61.94923138 82.1587627 60.51757812 82.14648438 C57.01140712 82.1134403 53.50579746 82.06167167 50 82 C50.08456534 90.61497599 50.17951078 99.22974969 50.28752708 107.84446049 C50.33736694 111.84508391 50.38369753 115.84568249 50.421875 119.84643555 C50.45888402 123.71097816 50.50528522 127.57530655 50.55806351 131.43966484 C50.57652482 132.91032573 50.59166294 134.3810324 50.60334396 135.85176277 C50.62034903 137.91970652 50.64941574 139.98716843 50.68115234 142.05493164 C50.69447601 143.22963516 50.70779968 144.40433868 50.7215271 145.61463928 C51.02757751 149.3352564 51.69426975 152.50138078 53 156 C56.10161554 157.03387185 58.43580222 157.18445968 61.69140625 157.28125 C62.80064453 157.31863281 63.90988281 157.35601562 65.05273438 157.39453125 C67.39648085 157.46496103 69.74023087 157.53527314 72.08398438 157.60546875 C73.19193359 157.64285156 74.29988281 157.68023437 75.44140625 157.71875 C76.45920166 157.74904297 77.47699707 157.77933594 78.52563477 157.81054688 C81 158 81 158 83 159 C83 172.86 83 186.72 83 201 C78.63609011 203.18195494 72.74134859 202.18584276 67.89135742 202.18530273 C65.73400051 202.18745364 63.57718577 202.20550537 61.41992188 202.22460938 C43.68163529 202.29906796 26.54877693 199.80218933 13.06640625 187.19140625 C0.49087282 173.75045977 -0.44399671 156.66762519 -0.51171875 139.2265625 C-0.52860997 137.56504022 -0.54676598 135.90353037 -0.56611633 134.24203491 C-0.61314109 129.91857798 -0.64325514 125.59517143 -0.66955566 121.27154541 C-0.69960428 116.8397832 -0.74604948 112.40819401 -0.79101562 107.9765625 C-0.87650628 99.31779433 -0.94408929 90.65900952 -1 82 C-2.68029297 82.03480469 -2.68029297 82.03480469 -4.39453125 82.0703125 C-5.86718084 82.08907237 -7.33983763 82.10727234 -8.8125 82.125 C-9.55048828 82.14175781 -10.28847656 82.15851563 -11.04882812 82.17578125 C-14.91246426 82.21074628 -16.70903668 82.19397555 -20 80 C-20.27897038 76.96094254 -20.37167364 74.12842703 -20.328125 71.08984375 C-20.32625183 70.20720352 -20.32437866 69.32456329 -20.32244873 68.41517639 C-20.31572096 66.54814887 -20.30179213 64.68113562 -20.28125 62.81420898 C-20.25008874 59.94566863 -20.24028019 57.07767719 -20.234375 54.20898438 C-20.22520566 52.39843075 -20.21483011 50.58788275 -20.203125 48.77734375 C-20.19887512 47.91382797 -20.19462524 47.05031219 -20.19024658 46.16062927 C-20.11714689 40.11714689 -20.11714689 40.11714689 -19 39 C-13.06 38.67 -7.12 38.34 -1 38 C-0.67 25.46 -0.34 12.92 0 0 Z " fill="#27BCA1" transform="translate(1081,122)"/>
<path d="M0 0 C1.64087745 1.64087745 1.12739755 3.51831062 1.12939453 5.77929688 C1.13254669 6.797052 1.13569885 7.81480713 1.13894653 8.86340332 C1.13591019 10.52429993 1.13591019 10.52429993 1.1328125 12.21875 C1.13376923 13.34696167 1.13472595 14.47517334 1.13571167 15.63757324 C1.13639368 18.02840226 1.13453797 20.41923311 1.13037109 22.81005859 C1.12502316 26.48409151 1.13031543 30.15800217 1.13671875 33.83203125 C1.13605797 36.14843777 1.13477682 38.46484422 1.1328125 40.78125 C1.13483673 41.8885144 1.13686096 42.99577881 1.13894653 44.13659668 C1.13421829 45.66322937 1.13421829 45.66322937 1.12939453 47.22070312 C1.12859894 48.12147583 1.12780334 49.02224854 1.12698364 49.95031738 C1 52 1 52 0 53 C-1.5545601 53.10924037 -3.11360886 53.15585127 -4.671875 53.17578125 C-25.09179697 53.07675183 -25.09179697 53.07675183 -42.27906799 62.8503418 C-49.17341916 71.46224423 -48.56417145 82.37707358 -48.51642036 92.81298828 C-48.50367805 95.61263914 -48.51517791 98.41132054 -48.53245544 101.2109375 C-48.55900524 106.13508966 -48.56475601 111.05899934 -48.56335449 115.98321533 C-48.56111445 123.89168858 -48.5751651 131.79986539 -48.61894035 139.70822144 C-48.62878677 142.46652884 -48.62006364 145.22436822 -48.61024475 147.98266602 C-48.61638533 149.6655305 -48.62329584 151.34839242 -48.63110352 153.03125 C-48.62338425 153.79799545 -48.61566498 154.56474091 -48.60771179 155.35472107 C-48.63577632 158.27612973 -48.66227914 160.45888103 -50.23310852 162.97576904 C-52.50786626 164.29439971 -54.01157782 164.36805263 -56.63916016 164.35644531 C-57.57668121 164.35944641 -58.51420227 164.36244751 -59.48013306 164.36553955 C-60.48957977 164.35319275 -61.49902649 164.34084595 -62.5390625 164.328125 C-63.5756601 164.32625183 -64.61225769 164.32437866 -65.68026733 164.32244873 C-67.87086199 164.31572564 -70.0614446 164.30180609 -72.25195312 164.28125 C-75.61860206 164.25005927 -78.98478333 164.24027645 -82.3515625 164.234375 C-84.47656825 164.22520678 -86.60156921 164.21483158 -88.7265625 164.203125 C-89.74005768 164.19887512 -90.75355286 164.19462524 -91.79776001 164.19024658 C-92.72897675 164.18063904 -93.66019348 164.17103149 -94.61962891 164.16113281 C-95.85514999 164.15089081 -95.85514999 164.15089081 -97.1156311 164.14044189 C-99 164 -99 164 -100 163 C-100.09902902 160.92669603 -100.12632326 158.84995952 -100.12698364 156.77429199 C-100.12854363 156.1166912 -100.13010362 155.45909041 -100.13171089 154.78156233 C-100.13572266 152.56203487 -100.13253058 150.34257493 -100.12939453 148.12304688 C-100.13074849 146.53833475 -100.1325284 144.95362295 -100.13470459 143.36891174 C-100.13927952 139.05291796 -100.13748912 134.73694797 -100.1343255 130.42095375 C-100.13180221 125.91438353 -100.13413936 121.40781541 -100.13571167 116.90124512 C-100.13753346 109.33178337 -100.13512682 101.76233136 -100.13037109 94.19287109 C-100.12492846 85.42861574 -100.12669111 76.66438364 -100.1321975 67.90012884 C-100.13672838 60.38932518 -100.1373793 52.87852853 -100.13475883 45.36772394 C-100.13319591 40.87571487 -100.13300268 36.38371675 -100.13629532 31.89170837 C-100.13917366 27.66961002 -100.13719902 23.44754179 -100.13140106 19.2254467 C-100.13007327 17.67136116 -100.13046791 16.11727311 -100.13266373 14.56318855 C-100.13537448 12.45066023 -100.13199506 10.33822999 -100.12698364 8.22570801 C-100.12660662 7.04065926 -100.12622959 5.8556105 -100.12584114 4.63465118 C-100 2 -100 2 -99 1 C-97.4651703 0.90680551 -95.92607918 0.882542 -94.38842773 0.88647461 C-93.40748642 0.88655014 -92.4265451 0.88662567 -91.4158783 0.88670349 C-90.3492244 0.89186478 -89.2825705 0.89702606 -88.18359375 0.90234375 C-87.0974025 0.9037587 -86.01121124 0.90517365 -84.8921051 0.90663147 C-81.40720925 0.91224952 -77.92237658 0.92480508 -74.4375 0.9375 C-72.08138113 0.94251267 -69.72526126 0.94707598 -67.36914062 0.95117188 C-61.57940536 0.96222481 -55.78970719 0.97898049 -50 1 C-49.01956036 3.94131891 -48.88378798 5.82501665 -48.90234375 8.88671875 C-48.90556641 9.82451172 -48.90878906 10.76230469 -48.91210938 11.72851562 C-48.92467773 13.19321289 -48.92467773 13.19321289 -48.9375 14.6875 C-48.94201172 15.67556641 -48.94652344 16.66363281 -48.95117188 17.68164062 C-48.96295697 20.12115474 -48.97940989 22.56054689 -49 25 C-48.38125 24.175 -47.7625 23.35 -47.125 22.5 C-46.073125 21.2625 -46.073125 21.2625 -45 20 C-44.34 20 -43.68 20 -43 20 C-42.78214844 19.43152344 -42.56429688 18.86304688 -42.33984375 18.27734375 C-36.97809478 9.1639337 -23.66475735 3.53355125 -13.9375 0.6875 C-9.26906639 -0.12762333 -4.72902309 -0.39638985 0 0 Z " fill="#27BDA1" transform="translate(1586,160)"/>
<path d="M0 0 C6.96003447 -0.02526838 13.9200572 -0.04283222 20.88012695 -0.05493164 C23.24992312 -0.05997341 25.61971615 -0.06680665 27.98950195 -0.07543945 C31.38754039 -0.0875119 34.78553785 -0.09322971 38.18359375 -0.09765625 C39.25024765 -0.10281754 40.31690155 -0.10797882 41.4158783 -0.11329651 C42.88729027 -0.11340981 42.88729027 -0.11340981 44.38842773 -0.11352539 C45.25668686 -0.115746 46.12494598 -0.11796661 47.01951599 -0.12025452 C49 0 49 0 50 1 C50.09683581 3.07560806 50.12186902 5.15457204 50.12025452 7.23243713 C50.12110894 7.89074349 50.12196337 8.54904984 50.12284368 9.22730488 C50.1245003 11.44917106 50.11897418 13.67096295 50.11352539 15.89282227 C50.11324353 17.47915648 50.11340123 19.06549082 50.1139679 20.65182495 C50.11425592 24.97188722 50.10835837 29.29192197 50.10139394 33.61197782 C50.09516125 38.12168315 50.09455667 42.63138905 50.09336853 47.14109802 C50.09025496 55.68694374 50.08204124 64.23277674 50.07201904 72.77861685 C50.06085869 82.50517633 50.05534765 92.23173642 50.05032361 101.95830071 C50.03985864 121.97220759 50.02225871 141.98610299 50 162 C47.61170965 163.19414517 46.13956668 163.12683207 43.47436523 163.12939453 C42.53676865 163.13254669 41.59917206 163.13569885 40.63316345 163.13894653 C39.11125145 163.13591019 39.11125145 163.13591019 37.55859375 163.1328125 C36.52058121 163.13376923 35.48256866 163.13472595 34.4131012 163.13571167 C32.21656229 163.13639292 30.02002138 163.13454244 27.82348633 163.13037109 C24.4480338 163.12501671 21.07271402 163.13032073 17.69726562 163.13671875 C15.56770804 163.13605807 13.43815053 163.1347771 11.30859375 163.1328125 C9.7836454 163.13584885 9.7836454 163.13584885 8.22789001 163.13894653 C7.29344559 163.13579437 6.35900116 163.13264221 5.39624023 163.12939453 C4.5695433 163.12859894 3.74284637 163.12780334 2.89109802 163.12698364 C1 163 1 163 0 162 C-0.09685318 159.91172679 -0.12186882 157.82011638 -0.12025452 155.729599 C-0.12110894 155.06720909 -0.12196337 154.40481918 -0.12284368 153.72235686 C-0.12450033 151.4866713 -0.11897414 149.25105958 -0.11352539 147.01538086 C-0.11324353 145.41919456 -0.11340123 143.82300813 -0.1139679 142.2268219 C-0.11425592 137.87990105 -0.10835835 133.53300756 -0.10139394 129.18609309 C-0.09516128 124.64836053 -0.09455667 120.11062741 -0.09336853 115.57289124 C-0.09025495 106.9739216 -0.08204122 98.37496461 -0.07201904 89.77600056 C-0.06085872 79.98898272 -0.05534766 70.20196429 -0.05032361 60.41494167 C-0.03985862 40.27662071 -0.02225868 20.13831115 0 0 Z " fill="#24BCA0" transform="translate(988,161)"/>
<path d="M0 0 C7.82949971 4.60798681 12.45214791 10.18155745 15 18.88671875 C15.92498965 27.90536787 14.28329219 35.51367979 8.703125 42.7578125 C2.19543078 49.77282696 -5.1437128 51.71809318 -14.46875 52.28515625 C-23.17389855 52.38878897 -31.00107018 49.56618221 -37.54296875 43.72265625 C-43.20157451 37.6029789 -45.34478519 31.1275078 -45.02734375 22.8359375 C-44.132987 14.73634043 -40.98782558 8.63620751 -34.75 3.32421875 C-24.02094737 -3.23694697 -11.78056986 -5.52214212 0 0 Z " fill="#29BDA2" transform="translate(1027.75,93.67578125)"/>
<path d="M0 0 C0.66 0.33 1.32 0.66 2 1 C-2.62 5.62 -7.24 10.24 -12 15 C-12.66 14.67 -13.32 14.34 -14 14 C-9.61932717 8.89662734 -5.32423478 4.12628195 0 0 Z " fill="#69D1BE" transform="translate(539,139)"/>
<path d="" fill="#E1F6F2" transform="translate(0,0)"/>
</svg>
